# xmcd CD database file
# Generated: Tue Jul 23 07:32:07 2002 by KSCD
# 
# Track frame offsets:
#       150
#       20707
#       38349
#       68505
#       94373
#       115315
#       133343
#       158699
#
# Disc length: 2404 seconds
#
# Revision: 1
# Processed by: cddbd v1.4PL0 Copyright (c) Steve Scherf et al.
# Submitted via: Kscd 1.3.3
#
DISCID=64096208
DTITLE=Band In A Box - Banjo Practice Tracks
DYEAR=1900
DGENRE=
TTITLE0=Banjo In The Hollow (60bpm)
TTITLE1=Banjo In The Hollow (70bpm)
TTITLE2=Cripple Creek (60bpm)
TTITLE3=Cripple Creek (70bpm)
TTITLE4=Cumberland Gap (60bpm)
TTITLE5=Cumberland Gap (70bpm)
TTITLE6=Rollin' In My Sweet Baby's Arms (60bpm)
TTITLE7=Rollin' In My Sweet Baby's Arms (70bpm)
EXTD=
EXTT0=
EXTT1=
EXTT2=
EXTT3=
EXTT4=
EXTT5=
EXTT6=
EXTT7=
PLAYORDER=
